HIERARCHY
ROOT Hips
{
	OFFSET 0.000000 0.000000 0.000000 
	CHANNELS 6 Xposition Yposition Zposition Zrotation Yrotation Xrotation
	JOINT LeftUpLeg
	{
		OFFSET 1.363060 -1.794630 0.839290 
		CHANNELS 3 Zrotation Yrotation Xrotation
		JOINT LeftLeg
		{
			OFFSET 2.448110 -6.726130 0.000000 
			CHANNELS 3 Zrotation Yrotation Xrotation
			JOINT LeftFoot
			{
				OFFSET 2.562200 -7.039590 0.000000 
				CHANNELS 3 Zrotation Yrotation Xrotation
				JOINT LeftToeBase
				{
					OFFSET 0.157640 -0.433110 2.322550 
					CHANNELS 3 Zrotation Yrotation Xrotation
					End Site
					{
						OFFSET 0.000000 0.000000 0.000000 
					}
				}
			}
		}
	}
	JOINT RightUpLeg
	{
		OFFSET -1.305520 -1.794630 0.839290 
		CHANNELS 3 Zrotation Yrotation Xrotation
		JOINT RightLeg
		{
			OFFSET -2.542530 -6.985550 0.000000 
			CHANNELS 3 Zrotation Yrotation Xrotation
			JOINT RightFoot
			{
				OFFSET -2.568260 -7.056230 0.000000 
				CHANNELS 3 Zrotation Yrotation Xrotation
				JOINT RightToeBase
				{
					OFFSET -0.164730 -0.452590 2.363150 
					CHANNELS 3 Zrotation Yrotation Xrotation
					End Site
					{
						OFFSET 0.000000 0.000000 0.000000 
					}
				}
			}
		}
	}
	JOINT Spine
	{
		OFFSET 0.028270 2.035590 -0.193380 
		CHANNELS 3 Zrotation Yrotation Xrotation
		JOINT Spine1
		{
			OFFSET 0.056720 2.048850 -0.042750 
			CHANNELS 3 Zrotation Yrotation Xrotation
			JOINT Neck1
			{
				OFFSET -0.054170 1.746240 0.172020 
				CHANNELS 3 Zrotation Yrotation Xrotation
				JOINT Head
				{
					OFFSET 0.104070 1.761360 -0.123970 
					CHANNELS 3 Zrotation Yrotation Xrotation
					End Site
					{
						OFFSET 0.000000 0.000000 0.000000 
					}
				}
			}
			JOINT LeftArm
			{
				OFFSET 3.362410 1.200890 -0.311210 
				CHANNELS 3 Zrotation Yrotation Xrotation
				JOINT LeftForeArm
				{
					OFFSET 4.983000 -0.000000 -0.000000 
					CHANNELS 3 Zrotation Yrotation Xrotation
					JOINT LeftHand
					{
						OFFSET 3.483560 -0.000000 -0.000000 
						CHANNELS 3 Zrotation Yrotation Xrotation
						JOINT LeftHandIndex1
						{
							OFFSET 0.715260 -0.000000 -0.000000 
							CHANNELS 3 Zrotation Yrotation Xrotation
							End Site
							{
								OFFSET 0.000000 0.000000 0.000000 
							}
						}
					}
				}
			}
			JOINT RightArm
			{
				OFFSET -3.136600 1.374050 -0.404650 
				CHANNELS 3 Zrotation Yrotation Xrotation
				JOINT RightForeArm
				{
					OFFSET -5.241900 -0.000000 -0.000000 
					CHANNELS 3 Zrotation Yrotation Xrotation
					JOINT RightHand
					{
						OFFSET -3.444170 -0.000000 -0.000000 
						CHANNELS 3 Zrotation Yrotation Xrotation
						JOINT RightHandIndex1
						{
							OFFSET -0.622530 -0.000000 -0.000000 
							CHANNELS 3 Zrotation Yrotation Xrotation
							End Site
							{
								OFFSET 0.000000 0.000000 0.000000 
							}
						}
					}
				}
			}
		}
	}
}
MOTION
Frames: 13
Frame Time: 0.041667
3.139279 17.789659 -3.670850 3.956654 -38.395848 6.313687 -11.632413 -6.857118 -15.439570 0.808506 9.425679 28.982998 -1.107353 5.945862 -4.966455 0.602700 -4.969300 -13.821100 7.082072 10.762426 -19.760948 -3.112326 -12.256439 37.042374 -2.545920 6.086542 -6.532020 -0.141600 2.425500 -6.683100 0.960609 -0.509795 -2.176602 5.417131 0.046488 0.542019 4.753847 -2.266043 13.079004 3.568400 -1.744200 10.695000 -78.061190 0.742163 47.205100 105.543475 -61.882319 -76.458305 0.468968 -1.064100 6.436085 -7.125000 0.000000 0.000000 76.839891 -5.847561 30.504330 -115.137651 56.063158 -85.958715 0.963265 -0.617797 16.137591 7.125000 0.000000 0.000000 
3.136818 17.789864 -3.665312 3.989409 -38.434259 6.285075 -11.672023 -6.861188 -15.378449 0.799420 9.411285 28.945409 -1.106676 5.947034 -5.004019 0.594200 -4.935100 -13.723500 7.045746 10.761026 -19.731266 -3.112685 -12.257515 37.039065 -2.559644 6.128623 -6.550286 -0.146500 2.466500 -6.796800 0.941921 -0.481269 -2.163818 5.378399 0.058077 0.591294 4.738784 -2.279305 13.113806 3.546900 -1.745700 10.716700 -77.997650 0.731701 47.247130 105.543180 -61.882600 -76.459102 0.469513 -1.064554 6.340690 -7.125000 0.000000 0.000000 76.862159 -5.858598 30.493118 -115.154196 56.059740 -85.971276 0.963125 -0.617070 16.167326 7.125000 0.000000 0.000000 
3.135895 17.790274 -3.664697 4.002030 -38.429608 6.293722 -11.684303 -6.851760 -15.403227 0.800489 9.413946 28.950427 -1.123869 5.997939 -5.016010 0.615000 -5.018900 -13.962500 7.029259 10.816233 -19.715831 -3.110542 -12.253498 37.028892 -2.561988 6.141894 -6.535776 -0.135400 2.372000 -6.534900 0.935495 -0.496062 -2.161123 5.372440 0.049366 0.611210 4.791422 -2.264064 13.095769 3.571900 -1.732500 10.707200 -77.969264 0.715772 47.224954 105.567290 -61.879838 -76.478134 0.469667 -1.064429 6.330557 -7.125000 0.000000 0.000000 76.898858 -5.852313 30.523367 -115.182782 56.052562 -85.991934 0.961706 -0.618068 16.165055 7.125000 0.000000 0.000000 
3.135383 17.789967 -3.662954 3.957721 -38.432300 6.315268 -11.655896 -6.818342 -15.403744 0.800060 9.413043 28.944463 -1.128330 6.011314 -5.009352 0.624000 -5.054800 -14.065000 7.068072 10.810236 -19.703309 -3.109032 -12.252335 37.029227 -2.552260 6.113333 -6.521088 -0.147000 2.470600 -6.808100 0.933749 -0.492699 -2.152127 5.345420 0.050504 0.623862 4.779315 -2.262352 13.029864 3.560600 -1.727700 10.667400 -77.966855 0.702714 47.200607 105.580494 -61.878897 -76.488848 0.469639 -1.064188 6.404242 -7.125000 0.000000 0.000000 76.912880 -5.845937 30.529627 -115.224498 56.042871 -86.025105 0.958690 -0.618833 16.134366 7.125000 0.000000 0.000000 
3.135178 17.789044 -3.661416 3.948758 -38.449013 6.339392 -11.653930 -6.802635 -15.418373 0.801044 9.414092 28.947866 -1.129361 6.015286 -5.016825 0.609900 -4.998700 -13.905000 7.073367 10.777282 -19.736279 -3.108492 -12.253165 37.028704 -2.541903 6.069591 -6.532082 -0.161600 2.590300 -7.140100 0.929121 -0.475210 -2.161683 5.337318 0.061275 0.594784 4.803275 -2.256570 12.999700 3.573200 -1.722600 10.646900 -77.937110 0.722648 47.242396 105.620391 -61.875257 -76.514934 0.468869 -1.062405 6.375848 -7.125000 0.000000 0.000000 76.920020 -5.887203 30.506844 -115.260783 56.035153 -86.053608 0.955789 -0.623425 16.082344 7.125000 0.000000 0.000000 
3.134870 17.789044 -3.660698 3.936051 -38.444660 6.353354 -11.643694 -6.812859 -15.425190 0.801621 9.414451 28.947518 -1.141370 6.045696 -4.980186 0.600400 -4.960400 -13.795600 7.083687 10.780214 -19.742394 -3.108249 -12.252484 37.028664 -2.538716 6.059461 -6.530844 -0.153100 2.520900 -6.947700 0.939729 -0.491069 -2.183002 5.367392 0.057088 0.538194 4.824114 -2.212158 13.016383 3.601000 -1.708700 10.640400 -77.974184 0.799444 47.229773 105.673191 -61.870749 -76.553394 0.469007 -1.061774 6.363585 -7.125000 0.000000 0.000000 76.895356 -5.978765 30.537317 -115.346059 56.015751 -86.117524 0.955878 -0.625104 16.051016 7.125000 0.000000 0.000000 
3.132819 17.789352 -3.659365 3.958994 -38.449764 6.332717 -11.653682 -6.839302 -15.402305 0.800707 9.413172 28.946865 -1.123329 5.993641 -4.984573 0.562000 -4.801800 -13.344100 7.062115 10.845094 -19.703243 -3.109221 -12.251250 37.028311 -2.551145 6.107159 -6.532934 -0.130400 2.327300 -6.411000 0.941248 -0.512415 -2.192934 5.393545 0.047940 0.517137 4.839606 -2.182806 13.015765 3.613300 -1.695900 10.624400 -77.975614 0.859523 47.204328 105.700149 -61.869822 -76.571856 0.468624 -1.061091 6.370321 -7.125000 0.000000 0.000000 76.883753 -6.027499 30.603540 -115.407325 56.000574 -86.160712 0.959850 -0.622739 16.020634 7.125000 0.000000 0.000000 
3.132819 17.790069 -3.659365 3.981505 -38.427081 6.316099 -11.669956 -6.900132 -15.379661 0.801093 9.413831 28.951555 -1.138601 6.040349 -5.024502 0.581400 -4.882400 -13.573400 7.049879 10.857815 -19.690424 -3.109533 -12.251505 37.028538 -2.540208 6.053425 -6.571089 -0.139800 2.409500 -6.638900 0.930504 -0.530567 -2.193272 5.371546 0.039286 0.509071 4.845010 -2.183040 13.017874 3.610200 -1.692700 10.627900 -77.931489 0.860662 47.173520 105.698741 -61.870038 -76.571441 0.468532 -1.061398 6.366437 -7.125000 0.000000 0.000000 76.921779 -5.994132 30.621284 -115.388950 56.002828 -86.146576 0.959550 -0.621336 15.988873 7.125000 0.000000 0.000000 
3.132409 17.789762 -3.659262 3.988951 -38.413815 6.319476 -11.674191 -6.991599 -15.352991 0.802965 9.416579 28.961958 -1.170148 6.135981 -5.087274 0.602900 -4.970200 -13.823600 7.048098 10.851816 -19.697232 -3.109537 -12.251953 37.028697 -2.530125 6.006333 -6.599699 -0.151900 2.511500 -6.921400 0.928110 -0.526713 -2.196643 5.378871 0.041465 0.495799 4.864939 -2.209534 12.994867 3.620400 -1.703900 10.620100 -77.908848 0.835938 47.178648 105.670134 -61.871847 -76.551019 0.468619 -1.061893 6.385262 -7.125000 0.000000 0.000000 76.934176 -5.985752 30.599855 -115.397465 56.000622 -86.157701 0.955563 -0.618672 16.000138 7.125000 0.000000 0.000000 
3.131794 17.788941 -3.659673 3.995268 -38.425486 6.338717 -11.678204 -6.910077 -15.423929 0.810161 9.428182 28.994422 -1.148020 6.070333 -5.057220 0.599900 -4.958200 -13.789500 7.039345 10.888102 -19.710630 -3.107967 -12.248485 37.020140 -2.530894 6.008804 -6.602831 -0.143100 2.437600 -6.716800 0.948056 -0.528940 -2.218825 5.463765 0.043895 0.439525 4.868787 -2.211726 12.983081 3.633800 -1.711700 10.605200 -77.961398 0.868537 47.165937 105.691181 -61.868654 -76.566109 0.468633 -1.061552 6.376369 -7.125000 0.000000 0.000000 76.857120 -6.043451 30.611889 -115.408586 55.999816 -86.168646 0.953629 -0.617580 15.964888 7.125000 0.000000 0.000000 
3.131794 17.789454 -3.658545 4.005167 -38.404355 6.362300 -11.689838 -6.832169 -15.499804 0.817680 9.440772 29.030922 -1.113257 5.968977 -5.032159 0.600000 -4.958600 -13.790400 7.027706 10.884140 -19.737229 -3.106215 -12.245848 37.012123 -2.538515 6.050170 -6.553208 -0.126800 2.295300 -6.322500 0.953099 -0.543471 -2.226279 5.482893 0.037431 0.437639 4.901930 -2.224417 12.956105 3.656500 -1.718100 10.589100 -78.021376 0.909581 47.155626 105.704658 -61.868611 -76.576539 0.468901 -1.061467 6.406341 -7.125000 0.000000 0.000000 76.845082 -6.054136 30.592789 -115.423847 55.997493 -86.182661 0.951485 -0.617339 15.976366 7.125000 0.000000 0.000000 
3.131896 17.789967 -3.658237 3.921317 -38.355560 6.419022 -11.621275 -6.818368 -15.531511 0.824339 9.451077 29.054408 -1.119183 5.984720 -5.000955 0.626600 -5.065100 -14.094500 7.104298 10.862219 -19.738614 -3.103840 -12.242848 37.012422 -2.527419 6.027973 -6.512249 -0.122600 2.257600 -6.218000 0.966402 -0.558792 -2.221646 5.473229 0.028829 0.444541 4.958897 -2.252683 12.906225 3.690800 -1.729000 10.567900 -78.051744 0.892966 47.183900 105.705801 -61.868852 -76.574944 0.468212 -1.060472 6.351231 -7.125000 0.000000 0.000000 76.848302 -6.015998 30.579394 -115.409884 56.000709 -86.174039 0.949852 -0.616335 16.013084 7.125000 0.000000 0.000000 
3.131999 17.790274 -3.658955 3.848041 -38.357829 6.455317 -11.556902 -6.836495 -15.524981 0.827388 9.455896 29.062958 -1.135587 6.033501 -5.005115 0.638300 -5.111600 -14.227100 7.169643 10.879267 -19.719064 -3.102685 -12.240118 37.012863 -2.518294 5.989732 -6.554460 -0.134300 2.362200 -6.507800 0.982833 -0.553260 -2.224935 5.496787 0.031841 0.414770 5.037925 -2.274680 12.858161 3.746100 -1.740700 10.543200 -78.059588 0.877028 47.228971 105.687547 -61.870593 -76.558395 0.467224 -1.059201 6.254276 -7.125000 0.000000 0.000000 76.841545 -5.991706 30.539888 -115.370572 56.010666 -86.148861 0.944076 -0.617784 16.066547 7.125000 0.000000 0.000000 
